<?xml version="1.0" encoding="utf-8"?>
<!-- Generator: Adobe Illustrator 28.1.0, SVG Export Plug-In . SVG Version: 6.00 Build 0)  -->
<svg version="1.1" id="Layer_1" xmlns="http://www.w3.org/2000/svg" xmlns:xlink="http://www.w3.org/1999/xlink" x="0px" y="0px"
	 viewBox="0 0 14 12" style="enable-background:new 0 0 14 12;" xml:space="preserve">
<style type="text/css">
	.st0{fill-rule:evenodd;clip-rule:evenodd;fill:#808289;}
	.st1{fill:#44454C;}
	.st2{fill-rule:evenodd;clip-rule:evenodd;fill:#E6E6E6;}
</style>
<g id="Group" transform="translate(0, 12) scale(1, -1)">
	<path id="Rectangle" class="st0" d="M1,0h7c3.3,0,6,2.7,6,6v5c0,0.6-0.4,1-1,1H1c-0.6,0-1-0.4-1-1V1C0,0.4,0.4,0,1,0z"/>
	<path id="Rectangle_00000126311933932948689790000008679404868418040241_" class="st1" d="M8,0c3.3,0,6,2.7,6,6v5c0,0.6-0.4,1-1,1
		H1c-0.6,0-1-0.4-1-1V1c0-0.6,0.4-1,1-1H8z M8,1H1v10h12V6C13,3.2,10.8,1,8,1z"/>
</g>
<path class="st2" transform="translate(0, 12) scale(1, -1)" d="M6.6,4.1L4.6,7.4c-0.2,0.3,0,0.8,0.4,0.8h3.8c0.4,0,0.6-0.4,0.4-0.8L7.4,4.1C7.2,3.7,6.8,3.7,6.6,4.1z"/>
</svg>
