<?xml version="1.0" encoding="UTF-8"?>
<svg width="28px" height="29px" viewBox="0 0 28 29" version="1.1" xmlns="http://www.w3.org/2000/svg" xmlns:xlink="http://www.w3.org/1999/xlink">
    <title>BTN-Up</title>
    <g id="Page-1" stroke="none" stroke-width="1" fill="none" fill-rule="evenodd">
        <g id="Artboard" transform="translate(-313, -39)">
            <g id="Group-3" transform="translate(16, 22)">
                <g id="BTN-Up" transform="translate(297, 17.7014)">
                    <rect id="Rectangle" fill="#D8D8D8" opacity="0" x="0" y="0" width="28" height="28" rx="4"></rect>
                    <path d="M7.34411431,11.0222011 C7.23207709,10.9047504 7.14687232,10.7775316 7.08814693,10.6404273 C7.02942154,10.5033229 7,10.3565683 7,10.1998103 C7,9.97620663 7.05307645,9.77343339 7.15946474,9.5914906 C7.26561764,9.40978318 7.40837095,9.26573533 7.58737158,9.15934705 C7.76637222,9.05319414 7.96773323,9 8.19157229,9 C8.51591532,9 8.80401102,9.1258065 9.05585939,9.37753717 L14.2162206,14.7086044 L19.3765818,9.37753717 C19.6283125,9.1258065 19.919115,9 20.2492247,9 C20.4674148,9 20.6659513,9.05319414 20.844952,9.15934705 C21.0239526,9.26573533 21.1665882,9.40978318 21.2729765,9.5914906 C21.3791294,9.77343339 21.4324412,9.97620663 21.4324412,10.1998103 C21.4324412,10.5187398 21.320404,10.7928308 21.0968003,11.0222011 L15.1811882,17.0636197 C15.0356104,17.2146111 14.8846191,17.3252361 14.7280965,17.395024 C14.5713386,17.4650472 14.4008113,17.5 14.2161618,17.5 C13.8638094,17.5 13.5420555,17.3545399 13.251253,17.0636197 L7.34411431,11.0222011 Z" id="Fill-1" fill="#D2D6D8" transform="translate(14.2162, 13.25) scale(1, -1) translate(-14.2162, -13.25)"></path>
                </g>
            </g>
        </g>
    </g>
</svg>