<?xml version="1.0" encoding="UTF-8"?>
<svg width="16px" height="16px" viewBox="0 0 16 16" version="1.1" xmlns="http://www.w3.org/2000/svg" xmlns:xlink="http://www.w3.org/1999/xlink">
    <title>?normal</title>
    <g id="test" stroke="none" stroke-width="1" fill="none" fill-rule="evenodd">
        <g id="Test" transform="translate(-834, -530)">
            <g id="Group-3-Copy" transform="translate(558, 507)">
                <g id="Group-14" transform="translate(276, 23)">
                    <circle id="Oval" fill="#454548" cx="8" cy="8" r="8"></circle>
                    <path d="M7.0859375,9.44689971 C7.0859375,9.82141143 7.31445312,10.088013 7.71435547,10.088013 C8.10791016,10.088013 8.27294922,9.86584502 8.38085938,9.49768096 C8.48876953,8.90100127 8.67285156,8.67883331 9.35839844,8.13928252 C10.2026367,7.48547393 10.659668,6.94592315 10.659668,6.03820831 C10.659668,4.67980987 9.55517578,3.81018096 7.95556641,3.81018096 C7.11767578,3.81018096 6.46386719,4.02600127 6.01318359,4.41320831 C5.60058594,4.76867706 5.34033203,5.25109893 5.34033203,5.68908721 C5.34033203,6.00647002 5.53710938,6.24768096 5.87988281,6.24768096 C6.13378906,6.24768096 6.2734375,6.13977081 6.44482422,5.84777862 C6.76220703,5.23205596 7.21289062,4.95275909 7.89208984,4.95275909 C8.66015625,4.95275909 9.22509766,5.42248565 9.22509766,6.0826419 C9.22509766,6.66027862 8.92041016,6.98400909 8.26660156,7.5045169 C7.35253906,8.23449737 7.0859375,8.65344268 7.0859375,9.44689971 Z M6.87011719,11.9542239 C6.87011719,12.4239505 7.25732422,12.7730716 7.72705078,12.7730716 C8.19677734,12.7730716 8.58398438,12.4239505 8.58398438,11.9542239 C8.58398438,11.4844974 8.19677734,11.1417239 7.72705078,11.1417239 C7.25732422,11.1417239 6.87011719,11.4844974 6.87011719,11.9542239 Z" id="Shape" fill="#BEC2C4" fill-rule="nonzero"></path>
                </g>
            </g>
        </g>
    </g>
</svg>